<?xml version="1.0" encoding="utf-8"?>
<!-- Generator: Adobe Illustrator 19.0.0, SVG Export Plug-In . SVG Version: 6.00 Build 0)  -->
<svg xmlns="http://www.w3.org/2000/svg" xmlns:xlink="http://www.w3.org/1999/xlink" version="1.1" id="Layer_1" x="0px" y="0px" viewBox="0 0 1400 980" style="enable-background:new 0 0 1400 980;" xml:space="preserve">
<style type="text/css">
	.st0{fill:#FFFFFF;}
	.st1{fill-rule:evenodd;clip-rule:evenodd;fill:#A2238D;}
	.st2{fill-rule:evenodd;clip-rule:evenodd;fill:#8C267B;}
	.st3{fill-rule:evenodd;clip-rule:evenodd;fill:#FFCB05;}
	.st4{fill-rule:evenodd;clip-rule:evenodd;fill:#F9AA1A;}
	.st5{fill-rule:evenodd;clip-rule:evenodd;fill:#6D1B10;}
	.st6{fill-rule:evenodd;clip-rule:evenodd;fill:#872B1B;}
	.st7{fill-rule:evenodd;clip-rule:evenodd;fill:#FFFFFF;}
	.st8{fill-rule:evenodd;clip-rule:evenodd;fill:#BC3226;}
	.st9{fill-rule:evenodd;clip-rule:evenodd;fill:#AB2824;}
	.st10{fill-rule:evenodd;clip-rule:evenodd;fill:#55C5CF;}
	.st11{fill-rule:evenodd;clip-rule:evenodd;fill:#1FB1BC;}
	.st12{fill-rule:evenodd;clip-rule:evenodd;fill:#D83826;}
	.st13{fill-rule:evenodd;clip-rule:evenodd;fill:#C13126;}
	.st14{fill-rule:evenodd;clip-rule:evenodd;fill:#FAB117;}
	.st15{fill-rule:evenodd;clip-rule:evenodd;fill:#F3E967;}
	.st16{fill-rule:evenodd;clip-rule:evenodd;fill:#FEF388;}
	.st17{fill-rule:evenodd;clip-rule:evenodd;fill:#066E88;}
	.st18{fill-rule:evenodd;clip-rule:evenodd;fill:#0C5B71;}
	.st19{fill-rule:evenodd;clip-rule:evenodd;fill:#5ECAE8;}
	.st20{fill-rule:evenodd;clip-rule:evenodd;fill:#2EBFE3;}
	.st21{fill-rule:evenodd;clip-rule:evenodd;fill:#18A1C4;}
	.st22{fill-rule:evenodd;clip-rule:evenodd;fill:#1986A1;}
	.st23{fill-rule:evenodd;clip-rule:evenodd;fill:#A5CE39;}
	.st24{fill-rule:evenodd;clip-rule:evenodd;fill:#5FA845;}
	.st25{fill-rule:evenodd;clip-rule:evenodd;fill:#9EDCF1;}
	.st26{fill-rule:evenodd;clip-rule:evenodd;fill:#80D3F0;}
	.st27{fill-rule:evenodd;clip-rule:evenodd;fill:#12497F;}
	.st28{fill-rule:evenodd;clip-rule:evenodd;fill:#163F6B;}
	.st29{fill-rule:evenodd;clip-rule:evenodd;fill:#226BB5;}
	.st30{fill-rule:evenodd;clip-rule:evenodd;fill:#1160AB;}
	.st31{fill-rule:evenodd;clip-rule:evenodd;fill:#075599;}
	.st32{fill-rule:evenodd;clip-rule:evenodd;fill:#0C4D88;}
	.st33{fill-rule:evenodd;clip-rule:evenodd;fill:#82816F;}
	.st34{fill-rule:evenodd;clip-rule:evenodd;fill:#686752;}
	.st35{fill-rule:evenodd;clip-rule:evenodd;fill:#FDF6AF;}
	.st36{fill-rule:evenodd;clip-rule:evenodd;fill:#FBE390;}
	.st37{fill-rule:evenodd;clip-rule:evenodd;fill:#97C93D;}
	.st38{fill-rule:evenodd;clip-rule:evenodd;fill:#FCD09E;}
	.st39{fill-rule:evenodd;clip-rule:evenodd;fill:#F0B16B;}
	.st40{fill-rule:evenodd;clip-rule:evenodd;fill:#CA6628;}
	.st41{fill-rule:evenodd;clip-rule:evenodd;fill:#BE5727;}
	.st42{fill-rule:evenodd;clip-rule:evenodd;fill:#F0C2DB;}
	.st43{fill-rule:evenodd;clip-rule:evenodd;fill:#ECB2D1;}
	.st44{fill-rule:evenodd;clip-rule:evenodd;fill:#E69FC6;}
	.st45{fill-rule:evenodd;clip-rule:evenodd;fill:#DE83B6;}
	.st46{fill-rule:evenodd;clip-rule:evenodd;fill:#F0F1F2;}
	.st47{fill-rule:evenodd;clip-rule:evenodd;fill:#C2E8F8;}
	.st48{fill-rule:evenodd;clip-rule:evenodd;fill:#9FDCF4;}
	.st49{fill-rule:evenodd;clip-rule:evenodd;fill:#D1D2D4;}
	.st50{fill-rule:evenodd;clip-rule:evenodd;fill:#E5E6E7;}
	.st51{fill:#404042;}
	.st52{fill-rule:evenodd;clip-rule:evenodd;fill:#010101;}
	.st53{fill-rule:evenodd;clip-rule:evenodd;fill:#EF4723;}
</style>
<g>
	
	<g>
		<path class="st1" d="M239.6,264.1c59,0,106.7,47.9,106.7,106.9s-47.8,106.7-106.7,106.7c-59.1,0-106.9-47.8-106.9-106.7    S180.5,264.1,239.6,264.1L239.6,264.1z"/>
		<path class="st2" d="M320.2,301c16.3,18.8,26.1,43.2,26.1,69.9c0,52.7-38.2,96.6-88.6,105.2l-56.3-56.3L320.2,301z"/>
		<path class="st3" d="M272.6,331.6c2.5-1.4,7.2-15,8.7-18.6c8.4-20.3,15.7-34.2,54.3-58.7c0,0,1.1,21.5-7.9,45.6    c0,0,0.9-1.4,11.1-1.5c0,0-6.8,1.8-12.3,10.5c-4.5,7.4-21.7,31-44.1,37.4c6.3,8,9.8,17.8,9.8,28.4c0,8.3-3.4,19.2,10.5,18    l-8.1,4.4l10.5,2.8l-12.5,4.8l7.7,3.8c0,0-10-0.4-16,2.6c-7.4,12.9-20.9,22.3-44.6,22.3c-23.8,0-37.3-9.4-44.7-22.3    c-6-2.9-16-2.6-16-2.6l7.7-3.8l-12.5-4.8l10.5-2.8l-8.1-4.4c13.9,1.2,10.5-9.8,10.5-18c0-10.6,3.5-20.4,9.8-28.4    c-22.3-6.4-39.6-30-44.1-37.4c-5.4-8.7-12.3-10.5-12.3-10.5c10.1,0.1,11.1,1.5,11.1,1.5c-9-24.2-7.9-45.6-7.9-45.6    c38.6,24.5,45.9,38.5,54.3,58.7c1.5,3.7,6.3,17.2,8.7,18.6c7.5,4,7-15.2,6.5-19c0,0,6.4,3.5,8.3,9.6c0,0,4.7-9.9,2.1-18.4    c0,0,6.3,0.6,9,8.5c0,0-4.1-10.5-0.2-30c0,0,0.2,15.3,15.3,27.1c0,0,0.7-5,4.1-7.8C250.1,311.1,264.8,335.8,272.6,331.6    L272.6,331.6z"/>
		<path class="st4" d="M272.6,331.6c2.5-1.4,7.2-15,8.7-18.6c8.4-20.3,15.7-34.2,54.3-58.7c0,0,1.1,21.5-7.9,45.6    c0,0,0.9-1.4,11.1-1.5c0,0-6.8,1.8-12.3,10.5c-4.5,7.4-21.7,31-44.1,37.4c6.3,8,9.8,17.8,9.8,28.4c0,8.3-3.4,19.2,10.5,18    l-8.1,4.4l10.5,2.8l-12.5,4.8l7.7,3.8c0,0-10-0.4-16,2.6c-7.4,12.9-20.9,22.3-44.6,22.3V301.6c2,2.7,4.5,5.4,7.8,7.9    c0,0,0.7-5,4.1-7.8C250.1,311.1,264.8,335.8,272.6,331.6L272.6,331.6z"/>
		<path class="st5" d="M274.6,334c0,0,5.4-2,9.6-0.6c-2.6,1.9-4.4,6-1.9,7.8c25.9-9.7,45.4-41.3,44.7-72.4    C284.4,294.3,290.2,316.5,274.6,334L274.6,334z"/>
		<path class="st6" d="M204.4,334c0,0-5.4-2-9.6-0.6c2.6,1.9,4.4,6,1.9,7.8c-25.9-9.7-45.4-41.3-44.7-72.4    C194.6,294.3,188.8,316.5,204.4,334L204.4,334z"/>
		<path class="st6" d="M197.2,369.6c0,0,21-3.9,30,17.8C210.6,399.4,193.9,387.8,197.2,369.6L197.2,369.6z"/>
		<path class="st5" d="M281.8,369.6c0,0-21-3.9-30,17.8C268.5,399.4,285.1,387.8,281.8,369.6L281.8,369.6z"/>
		<path class="st6" d="M245,404.1c0,1.5-3.5,4.8-5.4,4.8c-2,0-5.5-3.3-5.5-4.8C234,401.7,245,401.7,245,404.1L245,404.1z"/>
		<path class="st5" d="M245,404.1c0,1.5-3.5,4.8-5.4,4.8v-6.6C242.3,402.3,245,402.9,245,404.1L245,404.1z"/>
		<path class="st7" d="M201.4,371.3c0.7,0,1.3,0.6,1.3,1.2c0,0.7-0.6,1.3-1.3,1.3c-0.7,0-1.3-0.6-1.3-1.3    C200.1,371.9,200.6,371.3,201.4,371.3L201.4,371.3z"/>
		<path class="st8" d="M214.6,382c4,0,7.2,1.8,7.2,3.9c0,2.2-3.2,3.9-7.2,3.9c-3.9,0-7.1-1.7-7.1-3.9    C207.5,383.8,210.7,382,214.6,382L214.6,382z"/>
		<path class="st9" d="M264.5,382c3.9,0,7.1,1.8,7.1,3.9c0,2.2-3.2,3.9-7.1,3.9c-4,0-7.2-1.7-7.2-3.9    C257.3,383.8,260.4,382,264.5,382L264.5,382z"/>
		<path class="st7" d="M261,379.5c-2.2,0-4,1.8-4,4c0,2.1,1.8,4,4,4c2.2,0,4-1.9,4-4C265,381.3,263.3,379.5,261,379.5L261,379.5z"/>
		<path class="st7" d="M277.7,371.3c-0.7,0-1.3,0.6-1.3,1.2c0,0.7,0.6,1.3,1.3,1.3c0.7,0,1.3-0.6,1.3-1.3    C279,371.9,278.4,371.3,277.7,371.3L277.7,371.3z"/>
		<path class="st7" d="M218,379.5c2.2,0,4,1.8,4,4c0,2.1-1.8,4-4,4s-4-1.9-4-4C214,381.3,215.7,379.5,218,379.5L218,379.5z"/>
		<path class="st10" d="M239.6,533.8c59,0,106.7,47.8,106.7,106.9c0,59-47.8,106.7-106.7,106.7c-59.1,0-106.9-47.8-106.9-106.7    C132.7,581.6,180.5,533.8,239.6,533.8L239.6,533.8z"/>
		<path class="st11" d="M320.6,571.2c16,18.6,25.7,42.9,25.7,69.5c0,52.7-38.2,96.5-88.6,105.2L201.8,690L320.6,571.2z"/>
		<path class="st12" d="M216.7,600.3l-4.1-0.5c-2,2.4-4.7,2.2-6.1,1.4c-2.5-1.3-7.2-15-8.7-18.5c-6.6-16-19.7-26.9-15.5-45.1    c-3.7,5-5.2,8.3-4.5,12.6c-7.5-7.8-18.2-16.2-34.3-26.3c-0.2,3.8-0.2,8.1,0,12.7c-2.7-2.2-6-2-6.7-1.4c3.9,3.1,6.4,8.4,7.8,13.4    c3.3,27.7,22.8,60.7,51.8,67.6c-5.9,7.9-9.4,17.6-9.4,28.1c0,26.9,9.1,58.7,52.7,58.7c43.5,0,52.6-31.8,52.6-58.7    c0-10.5-3.4-20.2-9.4-28.1c29-6.8,48.5-39.9,51.8-67.6c1.4-5.1,3.9-10.4,7.9-13.4c-0.8-0.6-4.1-0.8-6.8,1.4c0.2-4.6,0.2-9,0-12.7    c-16,10.1-26.8,18.5-34.3,26.3c0.7-4.4-0.8-7.7-4.5-12.6c4.2,18.2-8.8,29-15.5,45.1c-1.5,3.5-6.3,17.2-8.7,18.5    c-1.4,0.8-4.1,0.9-6.1-1.4l-4.1,0.5c-7-3.1-14.6-4.8-22.8-4.8C231.3,595.5,223.6,597.3,216.7,600.3L216.7,600.3z"/>
		<path class="st13" d="M238.5,703.2c0.4,0,0.7,0,1.1,0c43.5,0,52.6-31.8,52.6-58.7c0-10.5-3.4-20.2-9.4-28.1    c29-6.8,48.5-39.9,51.8-67.6c1.4-5.1,3.9-10.4,7.9-13.4c-0.8-0.6-4.1-0.8-6.8,1.4c0.2-4.6,0.2-9,0-12.7    c-16,10.1-26.8,18.5-34.3,26.3c0.7-4.4-0.8-7.7-4.5-12.6c4.2,18.2-8.8,29-15.5,45.1c-1.5,3.5-6.3,17.2-8.7,18.5    c-1.4,0.8-4.1,0.9-6.1-1.4l-4.1,0.5c-7-3.1-14.6-4.8-22.8-4.8c-0.4,0-0.7,0-1.1,0V703.2z"/>
		<path class="st5" d="M273.8,603.8c0,0,5.3-2,9.6-0.7c-2.6,2-4.5,6.1-2,7.9c25.9-9.7,45.4-41.4,44.7-72.4    C283.4,564,289.2,586.3,273.8,603.8L273.8,603.8z"/>
		<path class="st6" d="M203.5,603.8c0,0-5.3-2-9.6-0.7c2.6,2,4.5,6.1,2,7.9c-26.1-9.7-45.4-41.4-44.8-72.4    C193.7,564,187.9,586.3,203.5,603.8L203.5,603.8z"/>
		<path class="st6" d="M197.2,639.4c0,0,21-3.9,30,17.8C210.6,669,193.9,657.4,197.2,639.4L197.2,639.4z"/>
		<path class="st5" d="M281.8,639.4c0,0-21-3.9-30,17.8C268.5,669,285.1,657.4,281.8,639.4L281.8,639.4z"/>
		<path class="st6" d="M244,673.8c0,1.5-3.5,4.7-5.5,4.7c-1.9,0-5.4-3.2-5.4-4.7C233.1,671.4,244,671.4,244,673.8L244,673.8z"/>
		<path class="st5" d="M244,673.8c0,1.5-3.5,4.7-5.5,4.7v-6.6C241.2,671.9,244,672.5,244,673.8L244,673.8z"/>
		<path class="st3" d="M228,549.9c15.2,0.6,7.5,7.4,18.6,13.1c13.3,7,20.6,21.9,19.8,37.2c-2.2,36.9-55,33.3-53.9-0.2    c0.5-13.1,4.6-17.6,13.1-30.2C230.1,563.1,233,557.4,228,549.9L228,549.9z"/>
		<path class="st4" d="M238.5,554c1.7,2.6,2.1,5.9,8.1,9c13.3,7,20.6,21.9,19.8,37.2c-1.2,18.4-14.7,26.7-28,26.3V554z"/>
		<path class="st8" d="M214.6,651.8c4,0,7.2,1.8,7.2,3.9c0,2.1-3.2,3.9-7.2,3.9c-3.9,0-7.1-1.8-7.1-3.9    C207.5,653.5,210.7,651.8,214.6,651.8L214.6,651.8z"/>
		<path class="st9" d="M264.5,651.8c3.9,0,7.1,1.8,7.1,3.9c0,2.1-3.2,3.9-7.1,3.9c-4,0-7.2-1.8-7.2-3.9    C257.3,653.5,260.4,651.8,264.5,651.8L264.5,651.8z"/>
		<path class="st7" d="M218,649.3c2.2,0,4,1.8,4,4c0,2.1-1.8,3.9-4,3.9s-4-1.8-4-3.9C214,651.1,215.7,649.3,218,649.3L218,649.3z"/>
		<path class="st7" d="M201.4,640.9c0.7,0,1.3,0.6,1.3,1.3s-0.6,1.3-1.3,1.3c-0.7,0-1.3-0.6-1.3-1.3S200.6,640.9,201.4,640.9    L201.4,640.9z"/>
		<path class="st7" d="M261,649.3c-2.2,0-4,1.8-4,4c0,2.1,1.8,3.9,4,3.9c2.2,0,4-1.8,4-3.9C265,651.1,263.3,649.3,261,649.3    L261,649.3z"/>
		<path class="st7" d="M277.7,640.9c-0.7,0-1.3,0.6-1.3,1.3s0.6,1.3,1.3,1.3c0.7,0,1.3-0.6,1.3-1.3S278.4,640.9,277.7,640.9    L277.7,640.9z"/>
		<path class="st3" d="M501.7,729.4c59,0,106.7,47.9,106.7,106.9c0,59-47.8,106.7-106.7,106.7s-106.7-47.8-106.7-106.7    C394.9,777.3,442.7,729.4,501.7,729.4L501.7,729.4z"/>
		<path class="st14" d="M593,780.8c9.9,16.2,15.5,35.2,15.5,55.4c0,53.2-38.8,97.3-89.8,105.5l-91.3-91.4l18.9-19.3L593,780.8z"/>
		<path class="st15" d="M534.5,837.6c0,0,30.3-1.7,41.5,12.7c0,0-2.5-41.3,30.1-61.8c0,0-1.8-21.1,9.6-31.1c0,0-32.3,8.4-53,25.9    C542,800.7,532.2,827.5,534.5,837.6L534.5,837.6z"/>
		<path class="st16" d="M468.9,837.6c0,0-30.3-1.7-41.5,12.7c0,0,2.5-41.3-30.1-61.8c0,0,1.8-21.1-9.6-31.1c0,0,32.3,8.4,53,25.9    C461.3,800.7,471.2,827.5,468.9,837.6L468.9,837.6z"/>
		<path class="st17" d="M387.5,757.1c0,0,66.5,2,93.1,55.1l-21.9-0.1C458.6,812.1,446.3,775.3,387.5,757.1L387.5,757.1z     M615.8,757.1c0,0-66.5,2-93.1,55.1l21.9-0.1C544.7,812.1,557,775.3,615.8,757.1L615.8,757.1z"/>
		<path class="st18" d="M615.8,757.1c0,0-66.5,2-93.1,55.1l21.9-0.1C544.7,812.1,557,775.3,615.8,757.1L615.8,757.1z"/>
		<path class="st6" d="M599.8,788.5c0,0-40.3,14.9-59.1,39.3l-5.9,0.2C534.8,828,551.9,801.3,599.8,788.5L599.8,788.5z M403.5,788.5    c0,0,40.3,14.9,59.1,39.3l5.9,0.2C468.5,828,451.4,801.3,403.5,788.5L403.5,788.5z M432.4,830.1c0,0,19.9-5.8,29.8,6.1l2-3.5    C464.3,832.7,451.2,820.7,432.4,830.1L432.4,830.1z M570.9,830.1c0,0-19.9-5.8-29.8,6.1l-2-3.5    C539.1,832.7,552.1,820.7,570.9,830.1L570.9,830.1z"/>
		<path class="st19" d="M501.7,791.1c29.1,0,52.7,21.9,52.7,49c0,26.9-9.1,58.7-52.7,58.7s-52.7-31.8-52.7-58.7    C448.9,813,472.5,791.1,501.7,791.1L501.7,791.1z"/>
		<path class="st20" d="M500.8,790.3c29.1,0,52.7,21.9,52.7,49c0,27-9.1,58.7-52.7,58.7V790.3z"/>
		<path class="st17" d="M459.4,835c0,0,21-3.9,29.8,17.8C472.6,864.6,456.1,853.1,459.4,835L459.4,835z"/>
		<path class="st18" d="M544,835c0,0-21.1-3.9-30,17.8C530.7,864.6,547.2,853.1,544,835L544,835z"/>
		<path class="st17" d="M507.2,869.4c0,1.5-3.7,4.7-5.5,4.7c-1.9,0-5.4-3.2-5.4-4.7C496.2,866.9,507.2,866.9,507.2,869.4    L507.2,869.4z"/>
		<path class="st18" d="M507.2,869.4c0,1.5-3.7,4.7-5.5,4.7v-6.6C504.4,867.5,507.2,868.2,507.2,869.4L507.2,869.4z"/>
		<path class="st17" d="M501.7,829.1c0,0-20.2-24.7-43.3-17c6.5-13.8,21.2-21.6,37-23.2c0-30.8,2.8-62.3,6.3-62.3    c3.4,0,6.3,31.5,6.4,62.3c15.7,1.7,30.4,9.4,36.9,23.2C521.8,804.4,501.7,829.1,501.7,829.1L501.7,829.1z"/>
		<path class="st18" d="M501.7,829.1L501.7,829.1V726.6c3.4,0,6.3,31.5,6.4,62.3c15.7,1.7,30.4,9.4,36.9,23.2    C521.8,804.4,501.7,829.1,501.7,829.1L501.7,829.1z"/>
		<path class="st21" d="M476.8,847.3c4,0,7.2,1.8,7.2,3.9c0,2.1-3.2,3.9-7.2,3.9c-4,0-7.2-1.8-7.2-3.9    C469.6,849.1,472.8,847.3,476.8,847.3L476.8,847.3z"/>
		<path class="st22" d="M526.5,847.3c4,0,7.2,1.8,7.2,3.9c0,2.1-3.2,3.9-7.2,3.9c-3.9,0-7.2-1.8-7.2-3.9    C519.4,849.1,522.7,847.3,526.5,847.3L526.5,847.3z"/>
		<path class="st7" d="M480.2,844.9c2.1,0,3.9,1.8,3.9,4c0,2.1-1.8,3.9-3.9,3.9c-2.2,0-4-1.8-4-3.9    C476.2,846.6,478,844.9,480.2,844.9L480.2,844.9z"/>
		<path class="st7" d="M463.6,836.6c0.6,0,1.2,0.5,1.2,1.2s-0.6,1.3-1.2,1.3c-0.7,0-1.3-0.6-1.3-1.3S462.9,836.6,463.6,836.6    L463.6,836.6z"/>
		<path class="st7" d="M523.1,844.9c-2.1,0-3.9,1.8-3.9,4c0,2.1,1.8,3.9,3.9,3.9c2.2,0,4-1.8,4-3.9    C527.1,846.6,525.4,844.9,523.1,844.9L523.1,844.9z"/>
		<path class="st7" d="M539.9,836.6c-0.7,0-1.3,0.5-1.3,1.2s0.6,1.3,1.3,1.3c0.7,0,1.2-0.6,1.2-1.3S540.6,836.6,539.9,836.6    L539.9,836.6z"/>
		<path class="st23" d="M862.2,63.7c59,0,106.9,47.8,106.9,106.7s-47.9,106.9-106.9,106.9c-59,0-106.7-47.9-106.7-106.9    S803.3,63.7,862.2,63.7L862.2,63.7z"/>
		<path class="st24" d="M935.5,92.7c20.6,19.5,33.6,47.1,33.6,77.7c0,59-47.9,106.9-106.9,106.9c-24.9,0-47.9-8.6-66.1-23    c0,0,18.2-58.3,22.4-58c4.1,0.2,81.7-45.1,81.7-45.1L935.5,92.7z"/>
		<path class="st25" d="M862.2,125.3c11.8,0,22.6,3.5,31.5,9.6c2.5-6,7.4-19,17.1-46.8c47.9-34.2,0,0,47.9-34.2l-9.6,62.8    l-40.3,34.6c3.9,6.8,6.1,14.7,6.1,23c0,27-9.1,58.7-52.7,58.7c-43.5,0-52.6-31.7-52.6-58.7c0-8.3,2.2-16.2,6.1-23l-40.3-34.6    l-9.6-62.8c47.9,34.2,0,0,47.9,34.2c9.7,27.8,14.6,40.8,17.1,46.8C839.6,128.9,850.6,125.3,862.2,125.3L862.2,125.3z"/>
		<path class="st26" d="M862.2,125.3c11.8,0,22.6,3.5,31.5,9.6c2.5-6,7.4-19,17.1-46.8c47.9-34.2,0,0,47.9-34.2l-9.6,62.8    l-40.3,34.6c3.9,6.8,6.1,14.7,6.1,23c0,27-9.1,58.7-52.7,58.7V125.3z"/>
		<path class="st27" d="M820,169.1c0,0,21-3.8,30,17.8C833.3,198.8,816.7,187.3,820,169.1L820,169.1z"/>
		<path class="st28" d="M904.6,169.1c0,0-21-3.8-30,17.8C891.3,198.8,907.9,187.3,904.6,169.1L904.6,169.1z"/>
		<path class="st29" d="M837.4,181.5c4,0,7.2,1.8,7.2,4c0,2.1-3.2,3.9-7.2,3.9c-3.9,0-7.1-1.8-7.1-3.9    C830.3,183.3,833.5,181.5,837.4,181.5L837.4,181.5z"/>
		<path class="st30" d="M887.3,181.5c3.9,0,7.1,1.8,7.1,4c0,2.1-3.2,3.9-7.1,3.9c-4,0-7.2-1.8-7.2-3.9    C880.1,183.3,883.2,181.5,887.3,181.5L887.3,181.5z"/>
		<path class="st31" d="M867.8,203.5c0,1.7-3.5,4.8-5.5,4.8c-1.9,0-5.4-3.2-5.4-4.8C856.8,201.2,867.8,201.2,867.8,203.5    L867.8,203.5z"/>
		<path class="st31" d="M867.8,203.5c0,1.7-3.5,4.8-5.5,4.8v-6.6C865.1,201.8,867.8,202.4,867.8,203.5L867.8,203.5z"/>
		<path class="st7" d="M840.8,179c2.2,0,4,1.9,4,4c0,2.2-1.8,4-4,4c-2.2,0-4-1.8-4-4C836.8,180.9,838.5,179,840.8,179L840.8,179z"/>
		<path class="st7" d="M824.1,170.8c0.7,0,1.3,0.6,1.3,1.3s-0.6,1.3-1.3,1.3s-1.3-0.6-1.3-1.3S823.4,170.8,824.1,170.8L824.1,170.8z    "/>
		<path class="st7" d="M883.8,179c-2.2,0-4,1.9-4,4c0,2.2,1.8,4,4,4c2.1,0,4-1.8,4-4C887.8,180.9,886,179,883.8,179L883.8,179z"/>
		<path class="st7" d="M900.5,170.8c-0.7,0-1.3,0.6-1.3,1.3s0.6,1.3,1.3,1.3c0.7,0,1.3-0.6,1.3-1.3S901.2,170.8,900.5,170.8    L900.5,170.8z"/>
		<path class="st29" d="M821.2,142.6l-11.7-47.3c-31.7-22.6,0,0-31.7-22.6l6.4,41.5L821.2,142.6z"/>
		<path class="st30" d="M903.3,142.6l11.8-47.3c31.7-22.6,0,0,31.7-22.6l-6.4,41.5L903.3,142.6z"/>
		<path class="st31" d="M837.9,327.4c-65.7-19.9-60.5-134.8-6.8-200.9l10.5,2.4l9.2-10.1h23l9.2,10.1l10.5-2.4    c53.6,66.1,58.7,180.9-6.8,200.9c5.3-27,25.7-116.3,9.4-162.7l-7.2,5.8l-12.9-7.2l-15.8,12.3L847,164.2l-11.3,6.4l-7.2-5.8    C812.2,211.1,832.6,300.4,837.9,327.4L837.9,327.4z"/>
		<path class="st32" d="M862.2,118.7h11.6l9.2,10.1l10.5-2.4c53.6,66.1,58.7,180.9-6.8,200.9c5.3-27,25.7-116.3,9.4-162.7l-7.2,5.8    l-12.9-7.2l-13.8,10.6V118.7z"/>
		<path class="st28" d="M886.7,327.4c20.8-6.4,34.4-22.3,41.8-43.1c-3.7-7.2-10.9-17.1-23-16.4c-2.9,0.1-5.7,1.1-8.3,2.4    C893.5,295,888.8,316.3,886.7,327.4L886.7,327.4z"/>
		<path class="st27" d="M837.9,327.4c-20.8-6.4-34.6-22.3-41.8-43.1c3.7-7.2,10.9-17.1,23-16.4c2.9,0.1,5.7,1.1,8.3,2.4    C831.1,295,835.8,316.3,837.9,327.4L837.9,327.4z"/>
		<path class="st33" d="M501.7,62.2c59,0,106.7,47.8,106.7,106.7s-47.8,106.9-106.7,106.9S394.9,228,394.9,169    S442.7,62.2,501.7,62.2L501.7,62.2z"/>
		<path class="st34" d="M580.1,96.4c17.6,19.1,28.3,44.6,28.3,72.5c0,52.7-38.1,96.5-88.2,105.2l-59-58.9L580.1,96.4z"/>
		<path class="st35" d="M501.7,123.9c5.3,0,10.5,0.7,15.3,2.1c0.8-5.2,2.9-11.2,7.7-18.2c0,0-1.5,16,7.1,24.8l0,0    c1.7-5.4,4.7-14.2,10.1-24.2c3.5,0.7,6.6,1.2,6.6,1.2l-7.2-5.8c9.9-17.1,27.7-38.2,56.5-51.4c0,0,3.4,23.5-6,47.5    c-3.5,1.3-7.1,2.7-7.1,2.7l8.3,1.7c-7,18.2-23.7,31.6-48.4,40.1l0,0c6.1,7.9,9.8,17.8,9.8,28.3c0,27-9.1,58.7-52.7,58.7    s-52.7-31.7-52.7-58.7c0-10.5,3.7-20.4,9.8-28.3l0,0c-24.7-8.5-41.4-21.9-48.4-40.1l8.3-1.7c0,0-3.4-1.4-7.1-2.7    c-9.4-24.1-6-47.5-6-47.5c28.8,13.2,46.6,34.3,56.5,51.4l-7.2,5.8c0,0,3.2-0.5,6.6-1.2c5.4,10,8.5,18.8,10.1,24.2l0,0    c8.6-8.7,7.1-24.8,7.1-24.8c4.7,7,6.8,13,7.7,18.2C491.2,124.6,496.4,123.9,501.7,123.9L501.7,123.9z"/>
		<path class="st36" d="M501.7,123.9c5.3,0,10.5,0.7,15.3,2.1c0.8-5.2,2.9-11.2,7.7-18.2c0,0-1.5,16,7.1,24.8l0,0    c1.7-5.4,4.7-14.2,10.1-24.2c3.5,0.7,6.6,1.2,6.6,1.2l-7.2-5.8c9.9-17.1,27.7-38.2,56.5-51.4c0,0,3.4,23.5-6,47.5    c-3.5,1.3-7.1,2.7-7.1,2.7l8.3,1.7c-7,18.2-23.7,31.6-48.4,40.1l0,0c6.1,7.9,9.8,17.8,9.8,28.3c0,27-9.1,58.7-52.7,58.7V123.9z"/>
		<path class="st24" d="M554.2,85.6c10.9,3.2,23.9,10.5,34.7,27.2c1.7-2.7,2.9-5.5,4.1-8.5l-8.3-1.7c0,0,3.5-1.4,7.1-2.7    c9.4-24.1,6-47.5,6-47.5C578.8,61.2,564.5,73.3,554.2,85.6L554.2,85.6z"/>
		<path class="st37" d="M449.2,85.6c-10.4-12.3-24.7-24.4-43.6-33.1c0,0-3.4,23.5,6,47.5c3.7,1.3,7.1,2.7,7.1,2.7l-8.3,1.7    c1.2,2.9,2.6,5.8,4.1,8.5C425.3,96.1,438.4,88.8,449.2,85.6L449.2,85.6z"/>
		<path class="st6" d="M459.4,167.7c0,0,21-3.8,29.8,17.9C472.6,197.4,456.1,185.9,459.4,167.7L459.4,167.7z"/>
		<path class="st5" d="M544,167.7c0,0-21.1-3.8-30,17.9C530.7,197.4,547.2,185.9,544,167.7L544,167.7z"/>
		<path class="st6" d="M507.2,202.1c0,1.7-3.7,4.8-5.5,4.8c-1.9,0-5.4-3.2-5.4-4.8C496.2,199.8,507.2,199.8,507.2,202.1L507.2,202.1    z"/>
		<path class="st5" d="M507.2,202.1c0,1.7-3.7,4.8-5.5,4.8v-6.6C504.4,200.4,507.2,201,507.2,202.1L507.2,202.1z"/>
		<path class="st37" d="M501.7,152.7c-40.7-33.5,17.8-71.8-21.6-83.5c20.4-3.5,43.4,16.5,43.2,39.8    C523,129.4,505.4,138.8,501.7,152.7L501.7,152.7z"/>
		<path class="st24" d="M501.7,73.4c12.3,6.8,21.8,20.5,21.6,35.5c-0.2,20.4-17.8,29.8-21.6,43.8V73.4z"/>
		<path class="st5" d="M537.6,132.2c0,0,5.3-2.1,9.6-0.7c-2.6,2-4.5,6.1-2,7.9C571.3,129.7,590.6,98,590,67    C563.6,79.8,538.3,131.4,537.6,132.2L537.6,132.2z"/>
		<path class="st6" d="M465.7,132.2c0,0-5.3-2.1-9.6-0.7c2.6,2,4.5,6.1,2,7.9c-26.1-9.7-45.4-41.4-44.8-72.4    C439.7,79.8,465,131.4,465.7,132.2L465.7,132.2z"/>
		<path class="st8" d="M476.8,180.2c4,0,7.2,1.7,7.2,3.9c0,2.1-3.2,3.9-7.2,3.9c-4,0-7.2-1.8-7.2-3.9    C469.6,181.8,472.8,180.2,476.8,180.2L476.8,180.2z"/>
		<path class="st9" d="M526.5,180.2c4,0,7.2,1.7,7.2,3.9c0,2.1-3.2,3.9-7.2,3.9c-3.9,0-7.2-1.8-7.2-3.9    C519.4,181.8,522.7,180.2,526.5,180.2L526.5,180.2z"/>
		<path class="st7" d="M480.2,177.7c2.1,0,3.9,1.8,3.9,3.9c0,2.2-1.8,4-3.9,4c-2.2,0-4-1.8-4-4C476.2,179.5,478,177.7,480.2,177.7    L480.2,177.7z"/>
		<path class="st7" d="M463.6,169.3c0.6,0,1.2,0.6,1.2,1.3c0,0.7-0.6,1.3-1.2,1.3c-0.7,0-1.3-0.6-1.3-1.3    C462.3,169.9,462.9,169.3,463.6,169.3L463.6,169.3z"/>
		<path class="st7" d="M523.1,177.7c-2.1,0-3.9,1.8-3.9,3.9c0,2.2,1.8,4,3.9,4c2.2,0,4-1.8,4-4C527.1,179.5,525.4,177.7,523.1,177.7    L523.1,177.7z"/>
		<path class="st7" d="M539.9,169.3c-0.7,0-1.3,0.6-1.3,1.3c0,0.7,0.6,1.3,1.3,1.3c0.7,0,1.2-0.6,1.2-1.3    C541.1,169.9,540.6,169.3,539.9,169.3L539.9,169.3z"/>
		<path class="st38" d="M682,291.9c116.8,0,211.4,94.7,211.4,211.4c0,116.8-94.6,211.5-211.4,211.5S470.6,620,470.6,503.3    C470.6,386.6,565.2,291.9,682,291.9L682,291.9z"/>
		<path class="st39" d="M839.7,362.6c33.4,37.4,53.7,86.7,53.7,140.7c0,109.7-83.5,199.8-190.4,210.4L586.9,597.6l36.8-2.6    l118.9-95.7L839.7,362.6z"/>
		<path class="st40" d="M587.8,583.4c0,0,2.1,5.9,7.4,9c-4.6,1.3-7.3,1.1-11.2-1.4c0.4,10,15.3,13.1,21.3,20.9    c28,34.6,125.4,35.5,153.3,0c6-7.8,21-10.9,21.2-20.9c-3.9,2.5-6.5,2.7-11.2,1.4c5.4-3.1,7.4-9,7.4-9c-10.1-3.1-6.3-19.6-6.3-28.1    c0-17.2-5.9-33.1-15.7-46.4c66.6-13.9,90.5-103.1,87.9-154.3c-64.3,40.8-76.4,64-90.5,97.9c-2.5,6-10.4,28.8-14.5,31    c-2,1.1-5.8,1.3-9.1-1.3c-9.6-10-28.7-9.4-28.1-27.6c0,0-15.1,2.4-17.5,17.3c-7.9,0.9-26.9-6.4-26.9-26.1    c-14.7,8.6-19.9,20.1-19.1,28.1c0.6,6-1.8,13.8-9.7,9.6c-4.1-2.2-12-25-14.5-31c-13.9-33.9-26.1-57.1-90.5-97.9    c-2.6,51.2,21.3,140.4,88,154.3c-9.9,13.2-15.7,29.1-15.7,46.4C594.1,563.8,597.9,580.3,587.8,583.4L587.8,583.4z"/>
		<path class="st41" d="M682,638.1c31.3,0.1,62.6-8.6,76.7-26.3c6-7.8,21-10.9,21.2-20.9c-3.9,2.5-6.5,2.7-11.2,1.4    c5.4-3.1,7.4-9,7.4-9c-10.1-3.1-6.3-19.6-6.3-28.1c0-17.2-5.9-33.1-15.7-46.4c66.6-13.9,90.5-103.1,87.9-154.3    c-64.3,40.8-76.4,64-90.5,97.9c-2.5,6-10.4,28.8-14.5,31c-2,1.1-5.8,1.3-9.1-1.3c-9.6-10-28.7-9.4-28.1-27.6    c0,0-15.1,2.4-17.5,17.3l-0.5,0.1V638.1z"/>
		<path class="st5" d="M739,487.6c0,0,9-3.4,15.9-1.1c-4.4,3.2-7.3,10.1-3.2,13.1c43.3-16.2,75.6-69,74.5-120.7    C755.3,421.3,764.9,458.6,739,487.6L739,487.6z"/>
		<path class="st6" d="M622,487.6c0,0-9-3.4-15.9-1.1c4.2,3.2,7.3,10.1,3.2,13.1c-43.3-16.2-75.6-69-74.5-120.7    C605.7,421.3,596,458.6,622,487.6L622,487.6z"/>
		<path class="st6" d="M690.4,596.2c0,2.7-5.4,8-8.4,8s-8.5-5.3-8.5-8C673.5,592.2,690.4,592.2,690.4,596.2L690.4,596.2z"/>
		<path class="st5" d="M690.4,596.2c0,2.7-5.4,8-8.4,8v-11C686.3,593.3,690.4,594.2,690.4,596.2L690.4,596.2z"/>
		<path class="st6" d="M644.3,533.8c9.2,0,16.5,9.7,16.5,21.7c0,11.9-7.3,21.6-16.5,21.6s-16.6-9.7-16.6-21.6    C627.6,543.5,635.1,533.8,644.3,533.8L644.3,533.8z"/>
		<path class="st8" d="M644.3,557.6c5.9,0,10.6,2.6,10.6,5.9c0,3.2-4.7,5.8-10.6,5.8c-5.9,0-10.7-2.6-10.7-5.8    C633.5,560.2,638.4,557.6,644.3,557.6L644.3,557.6z"/>
		<path class="st7" d="M651,553.2c3.4,0,6.1,2.9,6.1,6.6c0,3.7-2.7,6.7-6.1,6.7c-3.3,0-6.1-3.1-6.1-6.7    C644.9,556.1,647.7,553.2,651,553.2L651,553.2z"/>
		<path class="st7" d="M639,543.1c1.1,0,1.9,0.9,1.9,2.1c0,1.2-0.8,2.1-1.9,2.1c-1.1,0-2-0.9-2-2.1C637,544.1,637.9,543.1,639,543.1    L639,543.1z"/>
		<path class="st5" d="M719.6,533.8c9.2,0,16.6,9.7,16.6,21.7c0,11.9-7.4,21.6-16.6,21.6c-9.1,0-16.5-9.7-16.5-21.6    C703.1,543.5,710.6,533.8,719.6,533.8L719.6,533.8z"/>
		<path class="st9" d="M719.6,557.6c5.9,0,10.7,2.6,10.7,5.9c0,3.2-4.8,5.8-10.7,5.8c-5.8,0-10.6-2.6-10.6-5.8    C709,560.2,713.9,557.6,719.6,557.6L719.6,557.6z"/>
		<path class="st7" d="M726.5,553.2c3.3,0,6.1,2.9,6.1,6.6c0,3.7-2.8,6.7-6.1,6.7c-3.4,0-6.1-3.1-6.1-6.7    C720.3,556.1,723.1,553.2,726.5,553.2L726.5,553.2z"/>
		<path class="st7" d="M714.3,543.1c1.1,0,2,0.9,2,2.1c0,1.2-0.9,2.1-2,2.1c-1.1,0-1.9-0.9-1.9-2.1    C712.4,544.1,713.3,543.1,714.3,543.1L714.3,543.1z"/>
		<path class="st1" d="M1124.5,259.2c59,0,106.7,47.8,106.7,106.7c0,59-47.8,106.9-106.7,106.9c-59,0-106.9-47.9-106.9-106.9    C1017.6,307,1065.5,259.2,1124.5,259.2L1124.5,259.2z"/>
		<path class="st2" d="M1221.4,321.3c6.4,13.6,9.8,28.8,9.8,44.7c0,57.4-45.3,104.3-102.1,106.7l-109.9-110.1L1221.4,321.3z"/>
		<path class="st42" d="M1044.1,352.3c-26.5-13.4-54-41.9-62.5-66.3c5.9,5.5,8.6,9.7,13.9,11.3c37.9,11.7,69.9,8.5,115.6,25.1    c4.2-0.9,8.7-1.5,13.3-1.5s9.1,0.6,13.3,1.5c45.6-16.6,77.7-13.4,115.6-25.1c5.2-1.7,8-5.8,13.9-11.3c-8.5,24.4-36,52.8-62.5,66.3    c7.9,2.1,16.4,5.4,25,10.4c0,0-26.3,17.3-44.6,3.2c0,0,10.1,10,8.8,21.5c0,0-8.3,0.1-17.6-5.1c-2.8,23.5-15.1,46.2-52,46.2    c-36.9,0-49.2-22.8-52-46.2c-9.3,5.2-17.7,5.1-17.7,5.1c-1.2-11.4,9-21.5,9-21.5c-18.3,14.2-44.6-3.2-44.6-3.2    C1027.7,357.7,1036.1,354.4,1044.1,352.3L1044.1,352.3z"/>
		<path class="st43" d="M1123.5,320.9c0.2,0,0.6,0,0.9,0c4.6,0,9.1,0.6,13.3,1.5c45.6-16.6,77.7-13.4,115.6-25.1    c5.2-1.7,8-5.8,13.9-11.3c-8.5,24.4-36,52.8-62.5,66.3c7.9,2.1,16.4,5.4,25,10.4c0,0-26.3,17.3-44.6,3.2c0,0,10.1,10,8.8,21.5    c0,0-8.3,0.1-17.6-5.1c-2.8,23.5-15.1,46.2-52,46.2c-0.4,0-0.7,0-0.9,0V320.9z"/>
		<path class="st6" d="M1082.1,364.7c0,0,21.1-3.8,30,17.8C1095.4,394.4,1078.9,382.8,1082.1,364.7L1082.1,364.7z"/>
		<path class="st5" d="M1166.7,364.7c0,0-21-3.8-29.8,17.8C1153.5,394.4,1170,382.8,1166.7,364.7L1166.7,364.7z"/>
		<path class="st8" d="M1099.6,377.2c3.9,0,7.2,1.7,7.2,3.9c0,2.1-3.3,3.9-7.2,3.9c-4,0-7.2-1.8-7.2-3.9    C1092.4,378.8,1095.6,377.2,1099.6,377.2L1099.6,377.2z"/>
		<path class="st9" d="M1149.3,377.2c4,0,7.2,1.7,7.2,3.9c0,2.1-3.2,3.9-7.2,3.9c-4,0-7.2-1.8-7.2-3.9    C1142.1,378.8,1145.3,377.2,1149.3,377.2L1149.3,377.2z"/>
		<path class="st6" d="M1128.9,399.1c0,1.7-3.5,4.8-5.4,4.8c-2,0-5.5-3.2-5.5-4.8C1118,396.8,1128.9,396.8,1128.9,399.1    L1128.9,399.1z"/>
		<path class="st5" d="M1128.9,399.1c0,1.7-3.5,4.8-5.4,4.8v-6.6C1126.2,397.3,1128.9,397.9,1128.9,399.1L1128.9,399.1z"/>
		<path class="st7" d="M1103,374.7c2.1,0,3.9,1.8,3.9,3.9c0,2.2-1.8,4-3.9,4c-2.2,0-4-1.8-4-4C1099,376.5,1100.7,374.7,1103,374.7    L1103,374.7z"/>
		<path class="st7" d="M1086.2,366.3c0.7,0,1.3,0.6,1.3,1.3s-0.6,1.3-1.3,1.3c-0.7,0-1.2-0.6-1.2-1.3S1085.5,366.3,1086.2,366.3    L1086.2,366.3z"/>
		<path class="st7" d="M1145.9,374.7c-2.1,0-3.9,1.8-3.9,3.9c0,2.2,1.8,4,3.9,4c2.2,0,4-1.8,4-4    C1149.9,376.5,1148.2,374.7,1145.9,374.7L1145.9,374.7z"/>
		<path class="st7" d="M1162.6,366.3c-0.6,0-1.2,0.6-1.2,1.3s0.6,1.3,1.2,1.3c0.7,0,1.3-0.6,1.3-1.3S1163.3,366.3,1162.6,366.3    L1162.6,366.3z"/>
		<path class="st6" d="M1005.9,310.9c14.9,13.4,61.7,13.7,69.5,41C1075.7,349.6,1042.5,361.5,1005.9,310.9L1005.9,310.9z"/>
		<path class="st5" d="M1244.2,310.9c-14.9,13.4-61.7,13.7-69.5,41C1174.4,349.6,1207.7,361.5,1244.2,310.9L1244.2,310.9z"/>
		<path class="st12" d="M1124.5,338.6c6.6,0,12,5.4,12,12c0,6.7-5.4,12.1-12,12.1c-6.7,0-12-5.4-12-12.1    C1112.4,344,1117.7,338.6,1124.5,338.6L1124.5,338.6z"/>
		<path class="st13" d="M1124.5,338.6c6.6,0,12,5.4,12,12c0,6.7-5.4,12.1-12,12.1c-0.4,0-0.7-0.1-0.9-0.1v-24.1    C1123.7,338.6,1124.1,338.6,1124.5,338.6L1124.5,338.6z"/>
		<path class="st7" d="M1127.4,342.9c2.4,0,4.4,1.9,4.4,4.2c0,2.4-2,4.2-4.4,4.2c-2.2,0-4.2-1.9-4.2-4.2    C1123.2,344.7,1125.2,342.9,1127.4,342.9L1127.4,342.9z M1118.9,355.1c0.9,0,1.7,0.7,1.7,1.7c0,0.9-0.7,1.8-1.7,1.8    c-0.9,0-1.8-0.8-1.8-1.8C1117.1,355.8,1118,355.1,1118.9,355.1L1118.9,355.1z"/>
		<path class="st3" d="M1124.5,533.8c59,0,106.7,47.8,106.7,106.9c0,59-47.8,106.7-106.7,106.7c-59,0-106.9-47.8-106.9-106.7    C1017.6,581.6,1065.5,533.8,1124.5,533.8L1124.5,533.8z"/>
		<path class="st14" d="M1191.6,557.5c24.2,19.6,39.6,49.5,39.6,83.2c0,59-47.8,106.7-106.7,106.7c-10.6,0-20.9-1.5-30.5-4.5    l-11.9-48.1L1191.6,557.5z"/>
		<path class="st44" d="M1156.2,694.8h21.3c5.5-17.5,13.1-33.4,9.7-54.7c3.9,1.8,6.6,1.3,6.6,1.3c-2.1-8.1-6.8-10.9-6.8-10.9    c13.8,0.6,17.7-10.4,17.7-10.4c-4.7-1.3-9.1-1.7-13.1-1.5l0.1-0.4c12.7-9.6,23.8-23.8,28.3-41.8c3.2-13.1,0.6-24.7-10.1-25.9    c14.3-31.3,13.2-54,4.6-59.9c-19.5-13.1-44.8,43.5-57.3,90.2c-7.7,2.6-15,8.1-20.5,15.9c-3.9-0.8-7.9-1.3-12.1-1.3    c-10.1,0-19.7,2.7-27.7,7.3c-9-48.2-39.6-127.4-62.3-112.2c-8.6,5.9-9.7,28.7,4.6,59.9c-10.7,1.3-13.3,12.9-10.1,25.9    c4.6,18.2,15.9,32.7,28.8,42.1c-4-0.1-8.6,0.2-13.4,1.5c0,0,3.9,11,17.7,10.4c0,0-4.7,2.7-6.8,10.9c0,0,2.7,0.5,6.6-1.3    c-3.5,21.3,4.1,37.3,9.6,54.7h21.3c7.8,5.2,18,8.4,31.8,8.4C1138.3,703.2,1148.5,700,1156.2,694.8L1156.2,694.8z"/>
		<path class="st45" d="M1156.2,694.8h21.3c5.5-17.5,13.1-33.4,9.7-54.7c3.9,1.8,6.6,1.3,6.6,1.3c-2.1-8.1-6.8-10.9-6.8-10.9    c13.8,0.6,17.7-10.4,17.7-10.4c-4.7-1.3-9.1-1.7-13.1-1.5l0.1-0.4c12.7-9.6,23.8-23.8,28.3-41.8c3.2-13.1,0.6-24.7-10.1-25.9    c14.3-31.3,13.2-54,4.6-59.9c-19.5-13.1-44.8,43.5-57.3,90.2c-7.7,2.6-15,8.1-20.5,15.9c-3.9-0.8-7.9-1.3-12.1-1.3v107.7    C1138.3,703.2,1148.5,700,1156.2,694.8L1156.2,694.8z"/>
		<path class="st7" d="M1181.2,636.6c1.9,1.5,4,2.7,6,3.5c4.6,28.1-10,46.8-13.8,71.8c-0.7,4.4-0.8,8.4-0.5,11.9h-25.4    c-0.2-9,0.9-17.6,2.6-25.7c-6.8,3.2-15.2,5.1-25.7,5.1c-10.5,0-19-1.9-25.7-5.1c1.7,8.1,2.8,16.7,2.5,25.7h-25.4    c0.4-3.5,0.4-7.5-0.4-11.9c-3.9-25-18.4-43.8-13.8-71.8c4.2-1.8,8.4-5.2,11.9-8.8c0.4-1.1,0.7-2.1,1.2-3.2    c28.1-6.8,49.7,21.3,49.7,21.3s13-17,32-21.3c1.5,6.6,4.5,13.8,8.1,19.2C1170.5,645.4,1176.2,641.7,1181.2,636.6L1181.2,636.6z     M1061.6,640.2c-3.9,1.7-6.5,1.2-6.5,1.2C1057.2,641.5,1059.5,641,1061.6,640.2L1061.6,640.2z M1187.3,640.2    c3.9,1.7,6.5,1.2,6.5,1.2C1191.7,641.5,1189.4,641,1187.3,640.2L1187.3,640.2z"/>
		<path class="st46" d="M1181.2,636.6c1.9,1.5,4,2.7,6,3.5c4.6,28.1-10,46.8-13.8,71.8c-0.7,4.4-0.8,8.4-0.5,11.9h-25.4    c-0.2-9,0.9-17.6,2.6-25.7c-6.8,3.2-15.2,5.1-25.7,5.1v-53.8c0,0,13-17,32-21.3c1.5,6.6,4.5,13.8,8.1,19.2    C1170.5,645.4,1176.2,641.7,1181.2,636.6L1181.2,636.6z M1187.3,640.2c3.9,1.7,6.5,1.2,6.5,1.2    C1191.7,641.5,1189.4,641,1187.3,640.2L1187.3,640.2z"/>
		<path class="st44" d="M1101.2,717.9c0.6,15.9-2.9,33.1-15.6,51.2c0,0-7.8-5.3-4.4-17.6c0,0-7.7,7-21.9-0.5    c0,0,20.3-10.5,16.2-38.8C1083.9,712.5,1093,714.1,1101.2,717.9L1101.2,717.9z"/>
		<path class="st45" d="M1173.3,712.3c-4.1,28.3,16.3,38.8,16.3,38.8c-14.3,7.4-22.1,0.5-22.1,0.5c3.5,12.3-4.2,17.6-4.2,17.6    c-12.6-18-16.2-35.3-15.7-51.2C1156,714.1,1165,712.5,1173.3,712.3L1173.3,712.3z"/>
		<path class="st29" d="M1076,722.8c8.1,0.4,17.1,2,24.9,6.8c-1.3,12.5-5.7,25.7-15.2,39.5c0,0-7.8-5.3-4.4-17.6c0,0-7.7,7-21.9-0.5    C1059.3,751.1,1074.6,743.2,1076,722.8L1076,722.8z"/>
		<path class="st25" d="M1098.5,742.2c-2.4,8.7-6.5,17.7-12.9,26.9c0,0-7.8-5.3-4.4-17.6c0,0-7.7,7-21.9-0.5c0,0,9.4-4.8,14.2-16.9    C1081.9,734.7,1090.8,736.8,1098.5,742.2L1098.5,742.2z"/>
		<path class="st30" d="M1172.9,722.8c1.4,20.4,16.6,28.3,16.6,28.3c-14.3,7.4-22.1,0.5-22.1,0.5c3.5,12.3-4.2,17.6-4.2,17.6    c-9.6-13.8-13.9-27-15.2-39.5C1155.8,724.8,1164.8,723.1,1172.9,722.8L1172.9,722.8z"/>
		<path class="st26" d="M1175.4,734.2c4.7,12,14.2,16.9,14.2,16.9c-14.3,7.4-22.1,0.5-22.1,0.5c3.5,12.3-4.2,17.6-4.2,17.6    c-6.4-9.2-10.5-18.2-12.9-26.9C1158.1,736.8,1167,734.7,1175.4,734.2L1175.4,734.2z"/>
		<path class="st6" d="M1129.9,673.8c0,1.5-3.5,4.7-5.4,4.7c-1.9,0-5.5-3.2-5.5-4.7C1118.9,671.4,1129.9,671.4,1129.9,673.8    L1129.9,673.8z"/>
		<path class="st5" d="M1129.9,673.8c0,1.5-3.5,4.7-5.4,4.7v-6.6C1127.2,671.9,1129.9,672.5,1129.9,673.8L1129.9,673.8z"/>
		<path class="st29" d="M1057.6,557.2c4.2-1.5,11.8,8.4,16.7,22.3c5,13.9,5.5,26.4,1.2,28c-4.2,1.5-11.8-8.5-16.7-22.3    C1053.8,571.2,1053.2,558.7,1057.6,557.2L1057.6,557.2z"/>
		<path class="st30" d="M1191.3,557.2c-4.2-1.5-11.8,8.4-16.7,22.3c-3.9,10.7-5.1,20.6-3.4,25.2c2.8-0.5,5.8-0.8,8.8-0.8    c3.5-4,7.2-10.7,10.1-18.8C1195.1,571.2,1195.7,558.7,1191.3,557.2L1191.3,557.2z"/>
		<path class="st7" d="M1150.6,573.1c2.5,1.7,4.8,4.4,7,7.7c-8,2.6-15.7,8.3-21.2,16.5c-5.7,8.3-8,17.6-7.5,25.9    c-3.8-0.8-7.2-2-9.6-3.7C1102.8,608.4,1134.1,561.9,1150.6,573.1L1150.6,573.1z M1162.6,590.2c0.1,0.4,0.4,0.7,0.5,1.1    C1162.9,590.9,1162.7,590.6,1162.6,590.2L1162.6,590.2z M1190.2,604.4c0.4,0.1,0.7,0.1,1.2,0.2    C1190.9,604.5,1190.5,604.5,1190.2,604.4L1190.2,604.4z M1193.2,604.9c3.9,0.7,7.3,2,9.7,3.7c16.5,11.1-14.9,57.6-31.4,46.4    c-2.5-1.7-4.8-4.4-7-7.7c7.9-2.6,15.7-8.3,21.2-16.5C1191.3,622.5,1193.8,613.3,1193.2,604.9L1193.2,604.9z"/>
		<path class="st46" d="M1150.6,573.1c2.5,1.7,4.8,4.4,7,7.7c-8,2.6-15.7,8.3-21.2,16.5c-5.7,8.3-8,17.6-7.5,25.9    c-1.5-0.4-2.9-0.7-4.4-1.2v-36.7C1132.2,575.1,1143.1,567.9,1150.6,573.1L1150.6,573.1z M1162.6,590.2c0.1,0.4,0.4,0.7,0.5,1.1    C1162.9,590.9,1162.7,590.6,1162.6,590.2L1162.6,590.2z M1190.2,604.4c0.4,0.1,0.7,0.1,1.2,0.2    C1190.9,604.5,1190.5,604.5,1190.2,604.4L1190.2,604.4z M1193.2,604.9c3.9,0.7,7.3,2,9.7,3.7c16.5,11.1-14.9,57.6-31.4,46.4    c-2.5-1.7-4.8-4.4-7-7.7c7.9-2.6,15.7-8.3,21.2-16.5C1191.3,622.5,1193.8,613.3,1193.2,604.9L1193.2,604.9z"/>
		<path class="st25" d="M1100,638.1c5.8,0,10.5,10.7,10.5,16.5c0,5.8-4.7,10.5-10.5,10.5c-5.9,0-10.6-4.7-10.6-10.5    C1089.4,648.8,1094.1,638.1,1100,638.1L1100,638.1z"/>
		<path class="st26" d="M1148.9,638.1c-5.8,0-10.5,10.7-10.5,16.5c0,5.8,4.7,10.5,10.5,10.5c5.9,0,10.5-4.7,10.5-10.5    C1159.4,648.8,1154.8,638.1,1148.9,638.1L1148.9,638.1z"/>
		<path class="st47" d="M1099.6,651.8c3.9,0,7.2,1.8,7.2,3.9c0,2.1-3.3,3.9-7.2,3.9c-4,0-7.2-1.8-7.2-3.9    C1092.4,653.5,1095.6,651.8,1099.6,651.8L1099.6,651.8z"/>
		<path class="st48" d="M1149.3,651.8c4,0,7.2,1.8,7.2,3.9c0,2.1-3.2,3.9-7.2,3.9c-4,0-7.2-1.8-7.2-3.9    C1142.1,653.5,1145.3,651.8,1149.3,651.8L1149.3,651.8z"/>
		<path class="st7" d="M1101,654.4c2.1,0,4,1.8,4,4c0,2.1-1.9,3.9-4,3.9c-2.2,0-4-1.8-4-3.9C1097,656.1,1098.7,654.4,1101,654.4    L1101,654.4z"/>
		<path class="st7" d="M1094.3,646.1c0.7,0,1.3,0.5,1.3,1.2c0,0.7-0.6,1.3-1.3,1.3c-0.7,0-1.2-0.6-1.2-1.3    C1093.1,646.6,1093.6,646.1,1094.3,646.1L1094.3,646.1z"/>
		<path class="st7" d="M1151.9,654.4c2.1,0,3.9,1.8,3.9,4c0,2.1-1.8,3.9-3.9,3.9c-2.2,0-4-1.8-4-3.9    C1147.9,656.1,1149.7,654.4,1151.9,654.4L1151.9,654.4z"/>
		<path class="st7" d="M1145.2,646.1c0.7,0,1.3,0.5,1.3,1.2c0,0.7-0.6,1.3-1.3,1.3s-1.3-0.6-1.3-1.3    C1143.9,646.6,1144.5,646.1,1145.2,646.1L1145.2,646.1z"/>
		<path class="st49" d="M1149.3,702.6c18-8.3,31.1-26.3,27.7-54c-0.7,19.5-6.6,40.3-26.9,49.7    C1149.9,699.7,1149.6,701.2,1149.3,702.6L1149.3,702.6z"/>
		<path class="st50" d="M1071.8,648.6c-3.4,27.7,9.7,45.8,27.7,54c-0.2-1.4-0.6-2.9-0.8-4.4C1078.5,688.9,1072.6,668.1,1071.8,648.6    L1071.8,648.6z"/>
		<path class="st51" d="M212.6,251.2c0,1.2-0.5,2.1-1.3,2.9c-0.8,0.8-1.8,1.3-2.9,1.3c-0.7,0-1.3-0.1-1.7-0.2l0.4-2.5    c0.2,0,0.6,0,0.8,0c0.1,0,0.2,0,0.5,0c0.5,0,0.8-0.1,1.2-0.5c0.2-0.2,0.4-0.6,0.4-1.1v-13.8h2.7V251.2z M219.2,237.2    c1.2,0,2.1,0.5,2.9,1.3s1.3,1.8,1.3,2.9v9.8c0,1.2-0.5,2.1-1.3,2.9c-0.8,0.8-1.8,1.3-2.9,1.3c-1.2,0-2.2-0.5-3.1-1.3    c-0.8-0.8-1.2-1.8-1.2-2.9v-9.8c0-1.2,0.4-2.1,1.2-2.9C216.9,237.6,218,237.2,219.2,237.2L219.2,237.2z M220.6,241.4    c0-0.5-0.1-0.8-0.5-1.1c-0.2-0.4-0.6-0.5-1.1-0.5s-0.8,0.1-1.1,0.5c-0.4,0.2-0.5,0.6-0.5,1.1v9.7c0,0.5,0.1,0.8,0.5,1.2    c0.2,0.2,0.6,0.4,1.1,0.4s0.8-0.1,1.1-0.4c0.4-0.4,0.5-0.7,0.5-1.2V241.4z M233.1,255.2h-7.3v-17.8h2.7v15.1h4.6V255.2z     M235.1,240.1h-2.8v-2.7h8.4v2.7h-2.8v15.1h-2.7V240.1z M242.8,255.2v-17.8h7.7v2.7h-5v4.8h3.7v2.7h-3.7v4.8h5v2.7H242.8z     M256.6,237.2c1.2,0,2.1,0.5,2.9,1.3c0.8,0.8,1.3,1.8,1.3,2.9v9.8c0,1.2-0.5,2.1-1.3,2.9c-0.8,0.8-1.8,1.3-2.9,1.3    c-1.2,0-2.2-0.5-3.1-1.3c-0.8-0.8-1.2-1.8-1.2-2.9v-9.8c0-1.2,0.4-2.1,1.2-2.9C254.4,237.6,255.4,237.2,256.6,237.2L256.6,237.2z     M258,241.4c0-0.5-0.1-0.8-0.5-1.1c-0.2-0.4-0.6-0.5-1.1-0.5c-0.4,0-0.7,0.1-1.1,0.5c-0.4,0.2-0.5,0.6-0.5,1.1v9.7    c0,0.5,0.1,0.8,0.5,1.2c0.4,0.2,0.7,0.4,1.1,0.4c0.5,0,0.8-0.1,1.1-0.4c0.4-0.4,0.5-0.7,0.5-1.2V241.4z M266.1,237.4l3.7,11.9    v-11.9h2.6v17.8h-2.8l-3.7-11.4v11.4h-2.7v-17.8H266.1z"/>
		<path class="st51" d="M206.9,525h-2.6v-17.6h7.5v2.7h-5v4.7h3.5v2.7h-3.5V525z M220.8,525h-7.2v-17.6h2.6v15h4.6V525z M226,521    l-0.6,4h-2.7l2.9-17.6h3.7l2.9,17.6h-2.8l-0.6-4H226z M227.4,511.4l-0.9,7h1.9L227.4,511.4z M238.6,507.4c1.4,0,2.6,0.5,3.2,1.3    c0.7,0.7,0.9,1.7,0.9,2.9v2.6c0,1.2-0.5,2.2-1.4,3.1l2,7.7h-2.9l-1.5-6.6c-0.1,0-0.1,0-0.2,0h-1.5v6.6h-2.7v-17.6H238.6z     M240.2,511.6c0-0.9-0.5-1.5-1.5-1.5h-1.5v5.7h1.5c0.5,0,0.8-0.1,1.2-0.5c0.2-0.2,0.4-0.6,0.4-1.1V511.6z M245.6,525v-17.6h7.5    v2.7h-5v4.7h3.7v2.7h-3.7v4.8h5v2.6H245.6z M259.1,507.3c1.2,0,2.1,0.4,2.9,1.2c0.8,0.8,1.2,1.8,1.2,2.9v9.6    c0,1.2-0.4,2.2-1.2,3.1c-0.8,0.7-1.8,1.2-2.9,1.2c-1.2,0-2.2-0.5-2.9-1.3c-0.8-0.8-1.3-1.8-1.3-2.9v-9.6c0-1.2,0.5-2.1,1.3-2.9    C257,507.6,258,507.3,259.1,507.3L259.1,507.3z M260.6,511.4c0-0.5-0.1-0.8-0.5-1.1c-0.2-0.4-0.6-0.5-1.1-0.5    c-0.4,0-0.7,0.1-1.1,0.5c-0.4,0.2-0.5,0.6-0.5,1.1v9.6c0,0.5,0.1,0.8,0.5,1.1c0.4,0.4,0.7,0.5,1.1,0.5c0.5,0,0.8-0.1,1.1-0.5    c0.4-0.2,0.5-0.6,0.5-1.1V511.4z M268.6,507.4l3.5,11.8v-11.8h2.6V525h-2.8l-3.7-11.2V525h-2.6v-17.6H268.6z"/>
		<path class="st51" d="M463.6,720.3l-3.1-17.6h2.7l2.2,13.7l2.2-13.7h2.7l-3.2,17.6H463.6z M473.2,716.2l-0.6,4.1h-2.7l2.9-17.6    h3.7l2.9,17.6h-2.8l-0.6-4.1H473.2z M474.6,706.7l-0.9,7h1.9L474.6,706.7z M485.9,702.7c1.3,0,2.2,0.4,3.1,1.2    c0.7,0.8,1.1,1.8,1.1,2.9v2.6c0,1.2-0.4,2.1-1.2,2.9c-0.8,0.8-1.8,1.3-2.9,1.3h-1.5v6.6h-2.7v-17.6H485.9z M487.4,707    c0-0.5-0.1-0.8-0.4-1.2c-0.4-0.2-0.7-0.4-1.2-0.4h-1.5v5.5h1.5c0.5,0,0.8-0.1,1.1-0.4c0.4-0.4,0.5-0.7,0.5-1.2V707z M496,702.5    c1.2,0,2.1,0.4,2.9,1.2c0.8,0.8,1.2,1.9,1.2,3.1v9.6c0,1.2-0.4,2.1-1.2,2.9c-0.8,0.8-1.8,1.2-2.9,1.2c-1.2,0-2.1-0.4-2.9-1.2    c-0.8-0.8-1.3-1.8-1.3-2.9v-9.6c0-1.2,0.5-2.2,1.3-3.1C493.9,702.8,494.8,702.5,496,702.5L496,702.5z M497.4,706.6    c0-0.4-0.1-0.7-0.5-1.1c-0.2-0.2-0.6-0.5-1.1-0.5c-0.4,0-0.7,0.2-1.1,0.5c-0.2,0.4-0.5,0.7-0.5,1.1v9.7c0,0.4,0.2,0.7,0.5,1.1    c0.4,0.2,0.7,0.4,1.1,0.4c0.5,0,0.8-0.1,1.1-0.4c0.4-0.4,0.5-0.7,0.5-1.1V706.6z M506.7,702.7c1.4,0,2.5,0.4,3.2,1.2    c0.6,0.7,0.9,1.8,0.9,2.9v2.6c0,1.3-0.5,2.2-1.4,3.2l2,7.7h-2.9l-1.5-6.6c-0.1,0-0.2,0-0.2,0h-1.5v6.6h-2.7v-17.6H506.7z     M508.3,707c0-1.1-0.5-1.5-1.5-1.5h-1.5v5.5h1.5c0.5,0,0.8-0.1,1.1-0.4c0.4-0.4,0.5-0.7,0.5-1.2V707z M513.7,720.3v-17.6h7.5v2.6    h-5v4.8h3.5v2.6h-3.5v4.8h5v2.7H513.7z M527.3,702.5c1.1,0,2.1,0.4,2.9,1.2c0.8,0.8,1.2,1.9,1.2,3.1v9.6c0,1.2-0.4,2.1-1.2,2.9    c-0.8,0.8-1.9,1.2-2.9,1.2c-1.2,0-2.2-0.4-3.1-1.2c-0.7-0.8-1.2-1.8-1.2-2.9v-9.6c0-1.2,0.5-2.2,1.3-3.1    C525,702.8,526.1,702.5,527.3,702.5L527.3,702.5z M528.7,706.6c0-0.4-0.1-0.7-0.5-1.1c-0.2-0.2-0.6-0.5-1.1-0.5s-0.8,0.2-1.1,0.5    c-0.4,0.4-0.5,0.7-0.5,1.1v9.7c0,0.4,0.1,0.7,0.5,1.1c0.2,0.2,0.6,0.4,1.1,0.4s0.8-0.1,1.1-0.4c0.4-0.4,0.5-0.7,0.5-1.1V706.6z     M536.7,702.7l3.5,11.8v-11.8h2.6v17.6H540l-3.7-11.3v11.3h-2.6v-17.6H536.7z"/>
		<path class="st1" d="M862.2,729.4c59,0,106.9,47.9,106.9,106.9c0,59-47.9,106.7-106.9,106.7c-59,0-106.7-47.8-106.7-106.7    C755.5,777.3,803.3,729.4,862.2,729.4L862.2,729.4z"/>
		<path class="st2" d="M940.7,763.7c17.6,19,28.4,44.5,28.4,72.5c0,52.6-38.2,96.4-88.3,105.2l-59-59L940.7,763.7z"/>
		<path class="st52" d="M862.2,791.1c29.1,0,52.7,21.9,52.7,49c0,26.9-9.1,58.7-52.7,58.7c-43.5,0-52.6-31.8-52.6-58.7    C809.6,813,833.2,791.1,862.2,791.1L862.2,791.1z"/>
		<path class="st12" d="M820,835c0,0,21-3.9,30,17.8C833.3,864.6,816.7,853.1,820,835L820,835z"/>
		<path class="st13" d="M904.6,835c0,0-21-3.9-30,17.8C891.3,864.6,907.9,853.1,904.6,835L904.6,835z"/>
		<path class="st53" d="M837.4,847.3c4,0,7.2,1.8,7.2,3.9c0,2.1-3.2,3.9-7.2,3.9c-3.9,0-7.1-1.8-7.1-3.9    C830.3,849.1,833.5,847.3,837.4,847.3L837.4,847.3z"/>
		<path class="st12" d="M887.3,847.3c3.9,0,7.1,1.8,7.1,3.9c0,2.1-3.2,3.9-7.1,3.9c-4,0-7.2-1.8-7.2-3.9    C880.1,849.1,883.2,847.3,887.3,847.3L887.3,847.3z"/>
		<path class="st52" d="M866.8,869.4c0,1.5-3.7,4.7-5.5,4.7c-1.9,0-5.5-3.2-5.5-4.7C855.8,866.9,866.8,866.9,866.8,869.4    L866.8,869.4z"/>
		<path class="st7" d="M840.8,844.9c2.2,0,4,1.8,4,4c0,2.1-1.8,3.9-4,3.9c-2.2,0-4-1.8-4-3.9C836.8,846.6,838.5,844.9,840.8,844.9    L840.8,844.9z"/>
		<path class="st7" d="M824.1,836.6c0.7,0,1.3,0.5,1.3,1.2s-0.6,1.3-1.3,1.3s-1.3-0.6-1.3-1.3S823.4,836.6,824.1,836.6L824.1,836.6z    "/>
		<path class="st7" d="M883.8,844.9c-2.2,0-4,1.8-4,4c0,2.1,1.8,3.9,4,3.9c2.1,0,4-1.8,4-3.9C887.8,846.6,886,844.9,883.8,844.9    L883.8,844.9z"/>
		<path class="st7" d="M900.5,836.6c-0.7,0-1.3,0.5-1.3,1.2s0.6,1.3,1.3,1.3c0.7,0,1.3-0.6,1.3-1.3S901.2,836.6,900.5,836.6    L900.5,836.6z"/>
		<path class="st52" d="M833.8,806.1c0,0-10-54.5-67.6-86.5c0,0-10.4,70.2,53.2,92L833.8,806.1z M890.8,806.1    c0,0,9.9-54.5,67.6-86.5c0,0,10.4,70.2-53.2,92L890.8,806.1z"/>
		<path class="st3" d="M806.3,752.5c-1.5-1.9-3.2-3.7-4.8-5.5c-13.1,4.1-23,15.2-25.4,28.8c1.8,3.3,3.8,6.6,6.1,9.7    c-0.1-0.9-0.1-2-0.1-3.1C782.2,767.6,792.5,755.3,806.3,752.5L806.3,752.5z M923.1,747c13,4.1,22.9,15.2,25.4,28.8    c-1.8,3.3-3.8,6.6-6.1,9.7c0.1-0.9,0.1-2,0.1-3.1c0-14.7-10.4-27-24.2-29.8C919.8,750.6,921.5,748.8,923.1,747L923.1,747z"/>
		<path class="st3" d="M862.2,804.3c9.8,0,17.6,7.9,17.6,17.6c0,9.7-7.8,17.6-17.6,17.6c-9.7,0-17.5-7.9-17.5-17.6    C844.8,812.2,852.6,804.3,862.2,804.3L862.2,804.3z M862.2,809.5c6.8,0,12.5,5.5,12.5,12.4c0,6.8-5.7,12.4-12.5,12.4    c-6.8,0-12.4-5.5-12.4-12.4C849.9,815,855.4,809.5,862.2,809.5L862.2,809.5z"/>
		<path class="st51" d="M828,720.8c-1.2,0-2.1-0.5-2.9-1.3c-0.8-0.7-1.3-1.8-1.3-2.9V703h2.6v13.6c0,0.5,0.2,0.8,0.5,1.1    c0.4,0.4,0.7,0.5,1.1,0.5c0.5,0,0.8-0.1,1.1-0.5c0.4-0.2,0.5-0.6,0.5-1.1V703h2.7v13.6c0,1.2-0.4,2.2-1.2,3.1    C830.2,720.3,829.2,720.8,828,720.8L828,720.8z M837.2,720.5h-2.7V703h3.9l2.4,12.6l2.4-12.6h3.7v17.6h-2.6v-11l-2.2,11h-2.1    l-2.6-11V720.5z M849.3,720.5V703h3.9c1.1,0,2,0.4,2.8,0.8c0.7,0.5,1.3,1.2,1.5,2.2c0.2,0.5,0.2,1.1,0.2,1.8    c0,1.2-0.2,2.1-0.9,2.8c-0.2,0.4-0.6,0.6-0.9,0.7c0.6,0.2,1.2,0.7,1.5,1.4c0.2,0.4,0.5,0.9,0.6,1.7c0.1,0.4,0.1,0.8,0.1,1.3    c0,1.1-0.2,2-0.6,2.8c-0.4,0.6-0.8,1.1-1.4,1.4c-0.7,0.4-1.3,0.6-2,0.6H849.3z M852.1,717.9h1.1c0.9,0,1.5-0.5,1.9-1.4    c0.1-0.4,0.1-0.7,0.1-1.1c0-0.9-0.1-1.7-0.5-2.1c-0.4-0.5-0.8-0.6-1.5-0.6h-1.1V717.9z M852.1,710.2h1.1c0.8,0,1.4-0.4,1.7-1.2    c0.1-0.4,0.1-0.7,0.1-1.2c0-0.7-0.1-1.2-0.5-1.7c-0.4-0.2-0.7-0.5-1.3-0.5h-1.1V710.2z M864.6,703c1.4,0,2.6,0.5,3.2,1.3    c0.7,0.7,0.9,1.7,0.9,2.9v2.6c0,1.2-0.5,2.2-1.4,3.1l2,7.7h-2.8l-1.7-6.6c-0.1,0-0.1,0-0.2,0h-1.5v6.6h-2.6V703H864.6z     M866.1,707.2c0-0.9-0.5-1.5-1.4-1.5h-1.7v5.7h1.7c0.4,0,0.7-0.1,1.1-0.5c0.2-0.2,0.4-0.6,0.4-1.1V707.2z M871.6,720.5V703h7.5    v2.7h-5v4.7h3.7v2.7h-3.7v4.8h5v2.6H871.6z M885.1,702.8c1.2,0,2.1,0.4,2.9,1.2c0.8,0.8,1.2,1.8,1.2,2.9v9.6    c0,1.2-0.4,2.2-1.2,3.1c-0.8,0.7-1.8,1.2-2.9,1.2s-2.1-0.5-2.9-1.3c-0.8-0.7-1.3-1.8-1.3-2.9V707c0-1.2,0.5-2.1,1.3-2.9    C883,703.2,883.9,702.8,885.1,702.8L885.1,702.8z M886.5,707c0-0.5-0.1-0.8-0.5-1.1c-0.2-0.4-0.6-0.5-1.1-0.5    c-0.4,0-0.7,0.1-1.1,0.5c-0.2,0.2-0.5,0.6-0.5,1.1v9.6c0,0.5,0.2,0.8,0.5,1.1c0.4,0.4,0.7,0.5,1.1,0.5c0.5,0,0.8-0.1,1.1-0.5    c0.4-0.2,0.5-0.6,0.5-1.1V707z M894.6,703l3.5,11.8V703h2.7v17.6h-2.9l-3.5-11.2v11.2h-2.7V703H894.6z"/>
		<path class="st51" d="M1098.4,520.6c0,1.2-0.2,2.2-0.9,3.2c-0.4,0.6-1.1,0.9-1.8,1.2c-0.5,0.1-0.9,0.2-1.5,0.2    c-0.9,0-1.9-0.2-2.6-0.8c-0.5-0.4-0.9-0.9-1.3-1.7c-0.4-0.7-0.5-1.5-0.6-2.5l2.5-0.2c0.1,1.1,0.5,1.8,0.8,2.2    c0.4,0.4,0.7,0.5,1.2,0.5c0.6,0,0.9-0.2,1.3-0.8c0.2-0.2,0.4-0.7,0.4-1.2c0-0.7-0.4-1.4-1.1-2.1c-0.5-0.6-1.3-1.3-2.4-2.2    c-0.8-0.8-1.4-1.7-1.9-2.4c-0.4-0.7-0.6-1.5-0.6-2.4c0-1.7,0.6-2.8,1.7-3.7c0.7-0.5,1.5-0.7,2.5-0.7s1.8,0.1,2.5,0.6    c0.5,0.4,0.9,0.8,1.2,1.3c0.4,0.6,0.6,1.3,0.6,2.1l-2.5,0.5c-0.1-0.7-0.4-1.3-0.6-1.8c-0.4-0.2-0.6-0.4-1.1-0.4s-0.9,0.1-1.2,0.6    c-0.2,0.4-0.2,0.8-0.2,1.3c0,0.8,0.4,1.7,0.9,2.5c0.4,0.4,0.7,0.7,1.2,1.1c0.7,0.6,1.1,0.9,1.3,1.1c0.6,0.7,1.2,1.3,1.5,2    c0.1,0.2,0.2,0.6,0.4,0.8C1098.3,519.5,1098.4,520.1,1098.4,520.6L1098.4,520.6z M1102.9,517.7l-3.5-10.3h2.9l1.9,6.4l2-6.4h2.9    l-3.7,10.3v7.3h-2.6V517.7z M1118.4,525h-7.2v-17.6h2.6v15h4.6V525z M1121,525l-3.2-17.6h2.8l2.1,13.7l2.2-13.7h2.8l-3.3,17.6    H1121z M1130,525v-17.6h7.5v2.7h-4.8v4.7h3.5v2.7h-3.5v4.8h4.8v2.6H1130z M1143.6,507.3c1.2,0,2.1,0.4,2.9,1.2    c0.8,0.8,1.3,1.8,1.3,2.9v9.6c0,1.2-0.5,2.2-1.3,3.1c-0.8,0.7-1.8,1.2-2.9,1.2c-1.2,0-2.1-0.5-2.9-1.3c-0.8-0.8-1.2-1.8-1.2-2.9    v-9.6c0-1.2,0.4-2.1,1.2-2.9C1141.4,507.6,1142.4,507.3,1143.6,507.3L1143.6,507.3z M1145,511.4c0-0.5-0.1-0.8-0.4-1.1    c-0.4-0.4-0.7-0.5-1.2-0.5c-0.4,0-0.7,0.1-1.1,0.5c-0.2,0.2-0.4,0.6-0.4,1.1v9.6c0,0.5,0.1,0.8,0.4,1.1c0.4,0.4,0.7,0.5,1.1,0.5    c0.5,0,0.8-0.1,1.2-0.5c0.2-0.2,0.4-0.6,0.4-1.1V511.4z M1153.1,507.4l3.4,11.8v-11.8h2.7V525h-2.8l-3.7-11.2V525h-2.7v-17.6    H1153.1z"/>
		<path class="st51" d="M1094.5,250.4v-17.6h7.5v2.7h-5v4.7h3.7v2.7h-3.7v4.8h5v2.6H1094.5z M1112.5,246c0.1,1.2-0.2,2.2-0.9,3.1    c-0.4,0.6-0.9,1.1-1.8,1.3c-0.5,0.1-0.9,0.2-1.5,0.2c-0.9,0-1.9-0.2-2.5-0.8c-0.6-0.4-1.1-0.9-1.4-1.7c-0.4-0.8-0.5-1.7-0.6-2.5    l2.6-0.2c0.1,1.1,0.4,1.8,0.7,2.2c0.4,0.4,0.7,0.5,1.2,0.5c0.6,0,1.1-0.4,1.3-0.8c0.2-0.4,0.4-0.7,0.4-1.2c0-0.7-0.4-1.4-1.1-2.2    c-0.5-0.5-1.3-1.2-2.4-2.1c-0.8-0.9-1.4-1.7-1.8-2.4c-0.5-0.7-0.6-1.5-0.6-2.5c0-1.5,0.5-2.7,1.5-3.5c0.7-0.6,1.5-0.8,2.5-0.8    s1.8,0.2,2.5,0.7c0.5,0.2,0.9,0.7,1.2,1.3c0.4,0.6,0.6,1.3,0.6,2.1l-2.5,0.4c-0.1-0.7-0.4-1.2-0.6-1.7c-0.2-0.2-0.6-0.5-1.1-0.5    c-0.5,0-0.9,0.2-1.2,0.7c-0.1,0.4-0.2,0.7-0.2,1.3c0,0.8,0.4,1.7,1.1,2.5c0.2,0.2,0.6,0.6,1.1,1.1c0.7,0.5,1.1,0.9,1.3,1.1    c0.6,0.7,1.2,1.3,1.5,2c0.1,0.2,0.2,0.6,0.4,0.8C1112.4,245,1112.5,245.5,1112.5,246L1112.5,246z M1118.9,232.8    c1.3,0,2.4,0.5,3.2,1.3c0.7,0.7,1.1,1.8,1.1,2.9v2.5c0,1.2-0.5,2.2-1.3,2.9c-0.8,0.8-1.8,1.3-2.9,1.3h-1.5v6.6h-2.6v-17.6H1118.9z     M1120.6,237c0-0.5-0.1-0.8-0.5-1.1c-0.2-0.4-0.6-0.5-1.1-0.5h-1.7v5.7h1.7c0.5,0,0.8-0.2,1.1-0.5c0.4-0.4,0.5-0.7,0.5-1.1V237z     M1125.2,250.4v-17.6h7.5v2.7h-4.8v4.7h3.5v2.7h-3.5v4.8h4.8v2.6H1125.2z M1138.7,232.6c1.2,0,2.2,0.5,2.9,1.3    c0.8,0.8,1.3,1.8,1.3,2.9v9.6c0,1.2-0.5,2.1-1.3,2.9c-0.8,0.8-1.8,1.3-2.9,1.3c-1.2,0-2.1-0.5-2.9-1.3c-0.8-0.8-1.2-1.8-1.2-2.9    v-9.6c0-1.2,0.4-2.1,1.2-2.9S1137.5,232.6,1138.7,232.6L1138.7,232.6z M1140.1,236.7c0-0.4-0.1-0.7-0.4-1.1    c-0.4-0.2-0.7-0.4-1.1-0.4c-0.5,0-0.8,0.1-1.2,0.4c-0.2,0.4-0.4,0.7-0.4,1.1v9.7c0,0.4,0.1,0.7,0.4,1.1c0.4,0.2,0.7,0.5,1.2,0.5    c0.4,0,0.7-0.2,1.1-0.5c0.2-0.4,0.4-0.7,0.4-1.1V236.7z M1148.3,232.8l3.4,11.8v-11.8h2.7v17.6h-2.8l-3.7-11.2v11.2h-2.6v-17.6    H1148.3z"/>
		<path class="st51" d="M474.5,54.8h-7.2V37.2h2.6v14.9h4.6V54.8z M476.3,54.8V37.2h7.5v2.6H479v4.8h3.5v2.7H479v4.7h4.8v2.7H476.3z     M489,50.8l-0.6,4h-2.7l2.9-17.6h3.7l2.9,17.6h-2.8l-0.6-4H489z M490.5,41.2l-0.9,7h2L490.5,41.2z M500.1,54.8h-2.6V37.2h7.4v2.6    h-4.8v4.8h3.5v2.7h-3.5V54.8z M506.9,54.8V37.2h7.5v2.6h-5v4.8h3.7v2.7h-3.7v4.7h5v2.7H506.9z M520.4,37c1.2,0,2.1,0.5,2.9,1.3    c0.8,0.8,1.2,1.8,1.2,2.9v9.6c0,1.2-0.4,2.1-1.2,2.9c-0.8,0.8-1.9,1.3-2.9,1.3c-1.2,0-2.2-0.5-3.1-1.3c-0.7-0.8-1.2-1.8-1.2-2.9    v-9.6c0-1.2,0.5-2.2,1.3-3.1C518.3,37.5,519.2,37,520.4,37L520.4,37z M521.8,41.1c0-0.4-0.1-0.7-0.5-1.1c-0.2-0.2-0.6-0.5-1.1-0.5    s-0.8,0.2-1.1,0.5c-0.4,0.4-0.5,0.7-0.5,1.1v9.7c0,0.4,0.1,0.7,0.5,1.1c0.2,0.2,0.6,0.4,1.1,0.4s0.8-0.1,1.1-0.4    c0.4-0.4,0.5-0.7,0.5-1.1V41.1z M529.9,37.2l3.5,11.8V37.2h2.6v17.6h-2.8l-3.7-11.3v11.3h-2.6V37.2H529.9z"/>
		<path class="st51" d="M831.1,55c-1.2,0-2.1-0.5-2.9-1.3c-0.8-0.8-1.3-1.8-1.3-2.9v-9.6c0-1.2,0.5-2.1,1.3-2.9    c0.8-0.8,1.8-1.3,2.9-1.3c1.2,0,2.1,0.5,2.9,1.3c0.8,0.8,1.2,1.8,1.2,2.9v2h-2.7v-2.1c0-0.4-0.1-0.7-0.5-1.1    c-0.2-0.2-0.6-0.4-1.1-0.4c-0.4,0-0.7,0.1-1.1,0.4c-0.2,0.4-0.5,0.7-0.5,1.1v9.7c0,0.4,0.2,0.7,0.5,1.1c0.4,0.2,0.7,0.5,1.1,0.5    c0.5,0,0.8-0.2,1.1-0.5c0.4-0.4,0.5-0.7,0.5-1.1v-3.4h-1.4v-2.7h4.1v6.1c0,1.2-0.4,2.1-1.2,2.9C833.2,54.6,832.3,55,831.1,55    L831.1,55z M844.8,54.8h-7.2V37.2h2.6v14.9h4.6V54.8z M850,50.7l-0.6,4.1h-2.8l3.1-17.6h3.5l2.9,17.6h-2.7l-0.6-4.1H850z     M851.4,41.2l-0.9,7h1.9L851.4,41.2z M862.1,55c-1.2,0-2.1-0.5-2.9-1.3c-0.8-0.8-1.2-1.8-1.2-2.9v-9.6c0-1.2,0.4-2.1,1.2-2.9    c0.8-0.8,1.9-1.3,2.9-1.3c1.2,0,2.2,0.5,3.1,1.3c0.7,0.8,1.2,1.8,1.2,2.9v2h-2.7v-2.1c0-0.4-0.2-0.7-0.5-1.1    c-0.4-0.2-0.7-0.4-1.1-0.4c-0.5,0-0.8,0.1-1.1,0.4c-0.4,0.4-0.5,0.7-0.5,1.1v9.7c0,0.4,0.1,0.7,0.5,1.1c0.2,0.2,0.6,0.5,1.1,0.5    c0.4,0,0.7-0.2,1.1-0.5c0.2-0.4,0.5-0.7,0.5-1.1v-2.5h2.7v2.5c0,1.2-0.5,2.1-1.3,2.9C864.3,54.6,863.3,55,862.1,55L862.1,55z     M868.5,54.8V37.2h7.5v2.6h-4.8v4.8h3.5v2.7h-3.5v4.7h4.8v2.7H868.5z M882.1,37c1.2,0,2.1,0.5,2.9,1.3c0.8,0.7,1.3,1.8,1.3,2.9    v9.6c0,1.2-0.5,2.1-1.3,2.9c-0.8,0.8-1.8,1.2-2.9,1.2c-1.2,0-2.1-0.4-2.9-1.2c-0.8-0.8-1.3-1.8-1.3-2.9v-9.6    c0-1.2,0.5-2.2,1.3-3.1C879.9,37.5,880.9,37,882.1,37L882.1,37z M883.5,41.1c0-0.4-0.1-0.7-0.5-1.1c-0.2-0.2-0.6-0.5-1.1-0.5    c-0.4,0-0.7,0.2-1.1,0.5c-0.2,0.4-0.5,0.7-0.5,1.1v9.7c0,0.4,0.2,0.7,0.5,1.1c0.4,0.2,0.7,0.4,1.1,0.4c0.5,0,0.8-0.1,1.1-0.4    c0.4-0.4,0.5-0.7,0.5-1.1V41.1z M891.5,37.2L895,49V37.2h2.7v17.6h-2.9l-3.5-11.3v11.3h-2.7V37.2H891.5z"/>
		<path class="st0" d="M594.6,394.2v-64.3h27.5v9.7h-17.8v17.6h13.1v9.8h-13.1v17.6h17.8v9.7H594.6z M628.8,394.2v-64.3h27.6v9.7    h-17.9v17.6h13.1v9.8h-13.1v17.6h17.9v9.7H628.8z M674.5,394.2L663,330h10.1l8,50.1l8.1-50.1h10.1l-11.7,64.2H674.5z M707.6,394.2    v-64.3h27.6v9.7h-17.9v17.6h13.1v9.8h-13.1v17.6h17.9v9.7H707.6z M741.8,394.2v-64.3h27.6v9.7h-17.9v17.6h13.1v9.8h-13.1v17.6    h17.9v9.7H741.8z"/>
		<path class="st0" d="M653,422.6h-8.1v-19.9h2.9v16.9h5.2V422.6z M659.8,422.8c-1.4,0-2.5-0.5-3.4-1.4c-0.9-0.9-1.4-2-1.4-3.3    v-15.5h2.9V418c0,0.5,0.2,0.9,0.6,1.3c0.2,0.2,0.7,0.5,1.2,0.5s0.8-0.2,1.2-0.5c0.4-0.4,0.5-0.8,0.5-1.3v-15.3h3.2v15.5    c0,1.3-0.5,2.4-1.4,3.3C662.2,422.4,661.1,422.8,659.8,422.8L659.8,422.8z M670.1,405.7h-3.2v-3.1h9.3v3.1H673v16.9h-2.9V405.7z     M681.7,422.6h-2.9v-19.9h2.9V422.6z M689.1,402.4c1.3,0,2.4,0.5,3.3,1.4c0.9,0.9,1.4,2,1.4,3.4V418c0,1.4-0.5,2.5-1.4,3.4    c-0.9,0.9-2,1.4-3.3,1.4c-1.4,0-2.5-0.5-3.4-1.4c-0.9-0.9-1.4-2-1.4-3.4v-10.7c0-1.4,0.5-2.5,1.4-3.4    C686.6,402.9,687.8,402.4,689.1,402.4L689.1,402.4z M690.6,407.1c0-0.5-0.1-0.8-0.5-1.2c-0.4-0.4-0.7-0.5-1.2-0.5    c-0.5,0-0.9,0.1-1.2,0.5c-0.4,0.4-0.6,0.7-0.6,1.2V418c0,0.5,0.2,0.9,0.6,1.2c0.2,0.4,0.7,0.6,1.2,0.6c0.5,0,0.8-0.2,1.2-0.6    c0.4-0.2,0.5-0.7,0.5-1.2V407.1z M699.8,402.7l3.9,13.3v-13.3h3.1v19.9h-3.3l-4.1-12.7v12.7h-2.9v-19.9H699.8z M719.2,417.6    c0,1.4-0.4,2.6-1.1,3.5c-0.6,0.6-1.2,1.1-2.1,1.4c-0.5,0.1-1.1,0.2-1.7,0.2c-1.2,0-2.1-0.4-2.9-0.9c-0.6-0.5-1.1-1.1-1.5-1.9    c-0.4-0.8-0.6-1.8-0.6-2.8l2.8-0.2c0.1,1.2,0.5,2,0.9,2.5c0.4,0.5,0.7,0.6,1.2,0.6c0.7,0,1.2-0.4,1.5-0.9c0.2-0.4,0.4-0.7,0.4-1.3    c0-0.8-0.4-1.7-1.2-2.5c-0.6-0.6-1.4-1.4-2.6-2.5c-0.9-0.9-1.7-1.9-2.1-2.6c-0.5-0.8-0.7-1.8-0.7-2.8c0-1.8,0.7-3.2,1.9-4.1    c0.7-0.5,1.7-0.8,2.8-0.8c1.1,0,1.9,0.2,2.7,0.7c0.6,0.4,1.1,0.9,1.4,1.7c0.4,0.6,0.6,1.4,0.6,2.2l-2.8,0.5    c-0.1-0.7-0.4-1.4-0.7-1.9c-0.2-0.2-0.6-0.5-1.2-0.5c-0.5,0-0.9,0.2-1.2,0.7s-0.4,0.9-0.4,1.5c0,0.8,0.4,1.8,1.2,2.7    c0.2,0.4,0.7,0.8,1.3,1.3c0.7,0.6,1.2,0.9,1.4,1.2c0.7,0.7,1.3,1.5,1.7,2.2c0.2,0.4,0.4,0.6,0.5,0.9    C718.9,416.5,719.2,417,719.2,417.6L719.2,417.6z"/>
	</g>
</g>
</svg>
